<svg width="20" height="20" viewBox="0 0 20 20" fill="none" xmlns="http://www.w3.org/2000/svg">
<g clip-path="url(#clip0)">
<path d="M9.99926 0.822998C4.93743 0.822998 0.822266 4.93816 0.822266 10C0.822266 15.0618 4.93743 19.177 9.99926 19.177C15.0611 19.177 19.1763 15.0618 19.1763 10C19.1763 4.93816 15.0611 0.822998 9.99926 0.822998ZM9.99926 5.90416C11.5062 5.90416 12.7427 7.12132 12.7427 8.6476C12.7427 10.1546 11.5255 11.391 9.99926 11.391C8.4923 11.391 7.25582 10.1739 7.25582 8.6476C7.25582 7.12132 8.4923 5.90416 9.99926 5.90416ZM5.65227 15.313C5.88411 13.6708 7.27514 12.4536 8.93666 12.4536H11.0425C12.7041 12.4536 14.0951 13.6708 14.3269 15.313L14.3849 15.7767C13.1484 16.704 11.6415 17.2836 9.97994 17.2836C8.31843 17.2836 6.81147 16.704 5.57499 15.7767L5.65227 15.313Z" fill="#868686"/>
</g>
<defs>
<clipPath id="clip0">
<rect width="28" height="28" fill="white" transform="translate(0.339844 0.339996) scale(0.69)"/>
</clipPath>
</defs>
</svg>
