<svg width="21" height="17" viewBox="0 0 21 17" fill="none" xmlns="http://www.w3.org/2000/svg">
<path d="M0.00200505 15.7801C0.0147236 15.9152 0.0702967 16.0427 0.160616 16.1441C0.250935 16.2454 0.371273 16.3152 0.504071 16.3433C0.657592 16.3711 0.815972 16.3416 0.949152 16.2603C1.08233 16.1791 1.18105 16.0517 1.22656 15.9025C1.89827 14.4811 2.87693 13.2264 4.09201 12.2289C6.01065 10.6592 8.40942 9.79482 10.8883 9.77975H13.4721V12.0207C13.474 12.0922 13.4902 12.1626 13.5196 12.2277C13.5491 12.2929 13.5912 12.3516 13.6435 12.4003C13.7378 12.485 13.8596 12.5328 13.9864 12.535C14.1136 12.5352 14.2362 12.487 14.3293 12.4003L20.1091 6.62041C20.2041 6.52417 20.2574 6.39439 20.2574 6.25917C20.2574 6.12395 20.2041 5.99418 20.1091 5.89793L14.3415 0.142539C14.2697 0.0739112 14.1796 0.0275373 14.082 0.00901928C13.9844 -0.00949876 13.8836 0.000631179 13.7916 0.0381855C13.6997 0.0757398 13.6206 0.139112 13.5639 0.220648C13.5072 0.302183 13.4753 0.398394 13.4721 0.497659V2.73859H12.4312C10.5348 2.76433 8.66871 3.21824 6.97236 4.06642C5.276 4.9146 3.79323 6.13511 2.63479 7.63679C0.87722 9.98352 -0.0490785 12.8486 0.00200505 15.7801V15.7801Z" fill="#868686"/>
</svg>
