<svg width="18" height="16" viewBox="0 0 18 16" fill="none" xmlns="http://www.w3.org/2000/svg">
<path d="M4.90237 0.000143042C4.19451 -0.00117599 3.4947 0.150303 2.85075 0.444234C2.2068 0.738164 1.63388 1.16762 1.17112 1.70327C0.359616 2.67224 -0.056409 3.91171 0.00615801 5.17406C0.068725 6.43641 0.605277 7.62867 1.50862 8.51264L8.41799 15.422C8.47189 15.4758 8.54495 15.5061 8.62112 15.5061C8.69728 15.5061 8.77034 15.4758 8.82424 15.422L15.7336 8.51264C16.622 7.64255 17.156 6.47379 17.2322 5.23261C17.3084 3.99144 16.9214 2.76613 16.1461 1.79389C15.7086 1.26361 15.165 0.830607 14.5503 0.522663C13.9356 0.214719 13.2634 0.0386248 12.5767 0.00567167C11.8899 -0.0272814 11.2039 0.0836337 10.5626 0.331305C9.92121 0.578977 9.3387 0.957939 8.85237 1.44389C8.78998 1.50441 8.70647 1.53826 8.61955 1.53826C8.53263 1.53826 8.44913 1.50441 8.38674 1.44389C7.92929 0.986116 7.38611 0.622984 6.78823 0.375256C6.19036 0.127527 5.54953 6.10963e-05 4.90237 0.000143042V0.000143042Z" fill="#868686"/>
</svg>
