<svg width="15" height="16" viewBox="0 0 15 16" fill="none" xmlns="http://www.w3.org/2000/svg">
<path fill-rule="evenodd" clip-rule="evenodd" d="M7.25806 0C9.14897 0 11.044 0.173112 12.4307 0.50625C13.124 0.672818 13.6919 0.885074 14.0499 1.10625C14.3858 1.31374 14.5028 1.48955 14.5161 1.64375C14.5161 1.65393 14.5161 1.665 14.5161 1.675C14.5161 1.83658 14.4079 2.01632 14.0499 2.2375C13.6919 2.45868 13.124 2.67093 12.4307 2.8375C11.044 3.17064 9.14897 3.34375 7.25806 3.34375C5.36716 3.34375 3.47212 3.17064 2.08544 2.8375C1.3921 2.67093 0.824254 2.45868 0.46623 2.2375C0.108206 2.01632 0 1.83658 0 1.675C0 1.51342 0.108206 1.32743 0.46623 1.10625C0.824254 0.885074 1.3921 0.672818 2.08544 0.50625C3.47212 0.173112 5.36716 0 7.25806 0Z" fill="#868686"/>
<path fill-rule="evenodd" clip-rule="evenodd" d="M0 2.88751C0.015121 2.89717 0.0288507 2.90934 0.0441128 2.91876C0.524032 3.21524 1.15327 3.43398 1.89641 3.61251C3.38272 3.96958 5.31833 4.14376 7.25806 4.14376C9.1978 4.14376 11.1334 3.96958 12.6197 3.61251C13.3629 3.43398 13.9984 3.21524 14.4783 2.91876C14.4914 2.91066 14.5032 2.90204 14.5161 2.89376V5.86251V5.89376C14.5161 6.05534 14.4079 6.23509 14.0499 6.45626C13.6919 6.67744 13.124 6.88969 12.4307 7.05626C11.044 7.3894 9.14897 7.56251 7.25806 7.56251C5.36716 7.56251 3.47212 7.3894 2.08544 7.05626C1.3921 6.88969 0.824254 6.67744 0.46623 6.45626C0.108206 6.23509 0 6.05534 0 5.89376C0 5.8792 0 5.86458 0 5.85001V2.88751Z" fill="#868686"/>
<path fill-rule="evenodd" clip-rule="evenodd" d="M0 7.10626C0.015121 7.11592 0.0288507 7.12809 0.0441128 7.13751C0.524032 7.43399 1.15327 7.65897 1.89641 7.83751C3.38272 8.19457 5.31833 8.36251 7.25806 8.36251C9.1978 8.36251 11.1334 8.19457 12.6197 7.83751C13.3629 7.65897 13.9984 7.43399 14.4783 7.13751C14.4914 7.12941 14.5032 7.12079 14.5161 7.11251V10.0875V10.1125C14.5161 10.2741 14.4079 10.4601 14.0499 10.6813C13.6919 10.9024 13.124 11.1084 12.4307 11.275C11.044 11.6082 9.14897 11.7813 7.25806 11.7813C5.36716 11.7813 3.47212 11.6082 2.08544 11.275C1.3921 11.1084 0.824254 10.9024 0.46623 10.6813C0.108206 10.4601 0 10.2741 0 10.1125C0 10.1001 0 10.0875 0 10.075V7.10626Z" fill="#868686"/>
<path fill-rule="evenodd" clip-rule="evenodd" d="M0 11.325C0.0153226 11.3348 0.0286088 11.3467 0.0441128 11.3562C0.524032 11.6527 1.15327 11.8777 1.89641 12.0562C3.38272 12.4133 5.31833 12.5813 7.25806 12.5813C9.1978 12.5813 11.1334 12.4133 12.6197 12.0562C13.3629 11.8777 13.9984 11.6527 14.4783 11.3562C14.4916 11.348 14.503 11.3396 14.5161 11.3312V14.3313C14.5161 14.4928 14.4079 14.6788 14.0499 14.9C13.6919 15.1212 13.124 15.3272 12.4307 15.4938C11.044 15.8269 9.14897 16 7.25806 16C5.36716 16 3.47212 15.8269 2.08544 15.4938C1.3921 15.3272 0.824254 15.1212 0.46623 14.9C0.108206 14.6788 0 14.4928 0 14.3313V11.325Z" fill="#868686"/>
</svg>
