<svg width="32" height="32" viewBox="0 0 32 32" fill="none" xmlns="http://www.w3.org/2000/svg">
<path d="M26 17H7C6.73478 17 6.48043 16.8946 6.29289 16.7071C6.10536 16.5196 6 16.2652 6 16C6 15.7348 6.10536 15.4804 6.29289 15.2929C6.48043 15.1054 6.73478 15 7 15H26C26.2652 15 26.5196 15.1054 26.7071 15.2929C26.8946 15.4804 27 15.7348 27 16C27 16.2652 26.8946 16.5196 26.7071 16.7071C26.5196 16.8946 26.2652 17 26 17Z" fill="white"/>
<path d="M19 25C18.8078 24.9998 18.6198 24.9441 18.4584 24.8398C18.297 24.7355 18.1691 24.5869 18.09 24.4117C18.0108 24.2366 17.9838 24.0424 18.0122 23.8523C18.0406 23.6622 18.1232 23.4844 18.25 23.34L24.67 16L18.25 8.65999C18.0884 8.45932 18.0104 8.204 18.0325 7.94728C18.0545 7.69055 18.1747 7.45223 18.3682 7.282C18.5616 7.11178 18.8133 7.02279 19.0707 7.0336C19.3282 7.0444 19.5715 7.15416 19.75 7.33999L26.75 15.34C26.9103 15.5225 26.9987 15.7571 26.9987 16C26.9987 16.2429 26.9103 16.4775 26.75 16.66L19.75 24.66C19.6563 24.7667 19.5409 24.8521 19.4116 24.9108C19.2823 24.9694 19.142 24.9998 19 25Z" fill="white"/>
</svg>
